# xmcd
#
# Track frame offsets: 
#        150
#        49025
#        68536
#        93178
#        113281
#        149771
#        181463
#        228285
#        237854
#        269141
#        285127
#        325477
#
# Disc length: 4815 seconds
#
# Revision: 0
# Processed by: cddbd v1.5.1PL0 Copyright (c) Steve Scherf et al.
# Submitted via: ExactAudioCopy v0.95a5
#
DISCID=a312cd0c
DTITLE=Prince - Tweakin' Vol 7--88-91 Selections
DYEAR=1900
DGENRE=
TTITLE0=Thunder Ballet
TTITLE1=Cream
TTITLE2=Willing and Able
TTITLE3=Schoolyard
TTITLE4=Insatiable
TTITLE5=Live 4 Love
TTITLE6=We Can Funk
TTITLE7=If I Had A Harem
TTITLE8=Electric Chair
TTITLE9=We Got The Power
TTITLE10=Batdance
TTITLE11=Dance With The Devil
EXTD=
EXTT0=
EXTT1=
EXTT2=
EXTT3=
EXTT4=
EXTT5=
EXTT6=
EXTT7=
EXTT8=
EXTT9=
EXTT10=
EXTT11=
PLAYORDER=
